<?xml version="1.0" encoding="utf-8"?>
<!-- Svg Vector Icons : http://www.onlinewebfonts.com/icon -->
<!DOCTYPE svg PUBLIC "-//W3C//DTD SVG 1.1//EN" "http://www.w3.org/Graphics/SVG/1.1/DTD/svg11.dtd">
<svg version="1.1" xmlns="http://www.w3.org/2000/svg" xmlns:xlink="http://www.w3.org/1999/xlink" x="0px" y="0px" viewBox="0 0 1000 1000" enable-background="new 0 0 1000 1000" xml:space="preserve">
<metadata> Svg Vector Icons : http://www.onlinewebfonts.com/icon </metadata>
<g><path d="M313.6,664.9h517c24.6,0,49.2-16.4,57.4-41l98.5-426.7c8.2-16.4,0-32.8-8.2-49.2c-8.2-16.4-32.8-24.6-49.2-24.6H215l-21.8-98.3l-150.3,0C26.4,24.9,10,33.1,10,49.6C10,66,26.4,74,42.8,74h106.7l125.9,554.5c-32.8,16.4-53,36.4-53,85.6c0,32.8,12.2,56,28.6,72.5c-16.4,16.4-30.6,14-38.4,75.3c-7.3,57,43.6,113.2,101.1,113.2s106.7-47.6,106.7-105c0-16.4-4.9-47.3-16.6-60.5h371.1c-8.2,16.4-18,44.1-18,60.5c0,57.4,49.2,104.1,106.7,104.1c57.4,0,106.7-46.6,106.7-104.1c0-57.4-41-98.5-98.5-106.7h-8.2H313.6l0,0c-24.6,0-45-24.6-45-49.2C276.8,689.5,289,664.9,313.6,664.9z"/></g>
</svg>